<svg width="184" height="49" viewBox="0 0 184 49" fill="none" xmlns="http://www.w3.org/2000/svg">
<path d="M20.808 46.768C16.712 46.768 13.1067 45.808 9.992 43.888C6.92 41.968 4.50933 39.28 2.76 35.824C1.05333 32.368 0.2 28.336 0.2 23.728C0.2 19.0773 1.05333 15.024 2.76 11.568C4.50933 8.112 6.92 5.424 9.992 3.504C13.1067 1.584 16.712 0.623997 20.808 0.623997C24.9893 0.623997 28.6373 1.584 31.752 3.504C34.8667 5.424 37.2773 8.112 38.984 11.568C40.7333 15.024 41.608 19.0773 41.608 23.728C41.608 28.336 40.7333 32.368 38.984 35.824C37.2347 39.28 34.8027 41.968 31.688 43.888C28.5733 45.808 24.9467 46.768 20.808 46.768ZM39.88 48.944L22.536 32.048L25.864 28.528L43.272 45.616L39.88 48.944ZM20.808 41.392C23.9227 41.392 26.5893 40.6667 28.808 39.216C31.0693 37.7653 32.8187 35.7173 34.056 33.072C35.2933 30.4267 35.912 27.312 35.912 23.728C35.912 20.1013 35.2933 16.9653 34.056 14.32C32.8187 11.6747 31.0693 9.62666 28.808 8.176C26.5893 6.72533 23.9227 6 20.808 6C17.7787 6 15.1333 6.72533 12.872 8.176C10.6107 9.584 8.86133 11.6107 7.624 14.256C6.42933 16.9013 5.832 20.0587 5.832 23.728C5.832 27.3547 6.42933 30.4907 7.624 33.136C8.86133 35.7813 10.6107 37.8293 12.872 39.28C15.1333 40.688 17.7787 41.392 20.808 41.392ZM65.0585 46.512C62.1145 46.512 59.4692 45.8293 57.1225 44.464C54.8185 43.056 53.0052 41.1147 51.6825 38.64C50.3598 36.1653 49.6985 33.3493 49.6985 30.192C49.6985 27.0347 50.3385 24.24 51.6185 21.808C52.9412 19.3333 54.7545 17.4133 57.0585 16.048C59.4052 14.64 62.0718 13.936 65.0585 13.936C68.0452 13.936 70.6692 14.64 72.9305 16.048C75.2345 17.4133 77.0478 19.3333 78.3705 21.808C79.6932 24.24 80.3545 27.0347 80.3545 30.192C80.3545 33.3493 79.6932 36.1653 78.3705 38.64C77.0478 41.072 75.2345 42.992 72.9305 44.4C70.6265 45.808 68.0025 46.512 65.0585 46.512ZM65.0585 41.712C67.0638 41.712 68.7918 41.2427 70.2425 40.304C71.7358 39.3227 72.8878 37.9787 73.6985 36.272C74.5092 34.5227 74.9145 32.496 74.9145 30.192C74.9145 27.8453 74.5092 25.8187 73.6985 24.112C72.8878 22.3627 71.7358 21.0187 70.2425 20.08C68.7918 19.1413 67.0638 18.672 65.0585 18.672C63.0105 18.672 61.2398 19.1627 59.7465 20.144C58.2532 21.0827 57.1012 22.4053 56.2905 24.112C55.4798 25.8187 55.0745 27.8453 55.0745 30.192C55.0745 32.496 55.4798 34.5227 56.2905 36.272C57.1012 37.9787 58.2532 39.3227 59.7465 40.304C61.2398 41.2427 63.0105 41.712 65.0585 41.712ZM88.108 46V14.448H93.548V21.168L92.268 21.616C92.8653 19.9947 93.676 18.6293 94.7 17.52C95.724 16.368 96.9613 15.4933 98.412 14.896C99.8627 14.256 101.463 13.936 103.212 13.936C106.668 13.936 109.377 14.96 111.34 17.008C113.303 19.0133 114.284 22 114.284 25.968V46H108.844V27.952C108.844 24.752 108.247 22.4053 107.052 20.912C105.9 19.376 104.129 18.608 101.74 18.608C99.9907 18.608 98.4973 19.0133 97.26 19.824C96.0653 20.6347 95.148 21.9147 94.508 23.664C93.868 25.3707 93.548 27.568 93.548 30.256V46H88.108ZM132.088 46L119.16 14.448H125.112L134.328 39.024L143.608 14.448H149.496L136.632 46H132.088ZM168.684 46.512C165.74 46.512 163.094 45.8293 160.748 44.464C158.444 43.056 156.63 41.1147 155.308 38.64C153.985 36.1653 153.324 33.3493 153.324 30.192C153.324 27.0347 153.964 24.24 155.244 21.808C156.566 19.3333 158.38 17.4133 160.684 16.048C163.03 14.64 165.697 13.936 168.684 13.936C171.67 13.936 174.294 14.64 176.556 16.048C178.86 17.4133 180.673 19.3333 181.996 21.808C183.318 24.24 183.979 27.0347 183.979 30.192C183.979 33.3493 183.318 36.1653 181.996 38.64C180.673 41.072 178.86 42.992 176.556 44.4C174.252 45.808 171.628 46.512 168.684 46.512ZM168.684 41.712C170.689 41.712 172.417 41.2427 173.868 40.304C175.361 39.3227 176.513 37.9787 177.324 36.272C178.134 34.5227 178.54 32.496 178.54 30.192C178.54 27.8453 178.134 25.8187 177.324 24.112C176.513 22.3627 175.361 21.0187 173.868 20.08C172.417 19.1413 170.689 18.672 168.684 18.672C166.636 18.672 164.865 19.1627 163.372 20.144C161.878 21.0827 160.726 22.4053 159.916 24.112C159.105 25.8187 158.7 27.8453 158.7 30.192C158.7 32.496 159.105 34.5227 159.916 36.272C160.726 37.9787 161.878 39.3227 163.372 40.304C164.865 41.2427 166.636 41.712 168.684 41.712Z" fill="white"/>
</svg>
